<svg width="22" height="23" viewBox="0 0 22 23" fill="none" xmlns="http://www.w3.org/2000/svg">
<path d="M9.3773 0.585039C11.7401 0.585039 13.8049 1.05335 15.5717 1.98996C17.3385 2.92658 18.7009 4.24636 19.6588 5.9493C20.638 7.63096 21.1276 9.5787 21.1276 11.7925C21.1276 13.9851 20.638 15.9328 19.6588 17.6357C18.7009 19.3387 17.3279 20.6585 15.5398 21.5951C13.773 22.5317 11.7188 23 9.3773 23H0.979669V0.585039H9.3773ZM9.02607 18.2743C11.0909 18.2743 12.698 17.7102 13.8475 16.582C14.997 15.4538 15.5717 13.8573 15.5717 11.7925C15.5717 9.7277 14.997 8.12055 13.8475 6.97107C12.698 5.82158 11.0909 5.24684 9.02607 5.24684H6.43972V18.2743H9.02607Z" fill="white"/>
</svg>
